************************************************************************
Paradisio All Music Videos Best Quality


1-Paradisio - Bailando (Espanol Version) [DD2.0-PAL].vob

2-Paradisio - Bailando [DD5.1-PAL].vob

3-Paradisio - Bandolero [SVCD-RaiUno] (gianni and matteo rip).mpg

4-Paradisio - Luz De La Luna [MP2-PAL].vob

5-Paradisio - Paseo (Original Version) [VCD-MTV].mpg

6-Paradisio - Vamos A La Discoteca [LPCM-PAL-WS].vob



Info:

General
(Original Version) [VCD-MTV].mpg
Format                                   : MPEG-PS
File size                                : 29.2 MiB
Duration                                 : 3mn 19s
Overall bit rate                         : 1 229 Kbps

Video
ID                                       : 224 (0xE0)
Format                                   : MPEG Video
Format version                           : Version 1
Format settings, BVOP                    : Yes
Format settings, Matrix                  : Default
Format settings, GOP                     : M=3, N=15
Duration                                 : 3mn 19s
Bit rate                                 : 1 098 Kbps
Width                                    : 720 pixels
Height                                   : 576 pixels
Display aspect ratio                     : 4:3
Frame rate                               : 60.000 fps
Standard                                 : PAL
Color space                              : YUV
Bit depth                                : 8 bits
Scan type                                : Progressive
Compression mode                         : Lossy
Bits/(Pixel*Frame)                       : 0.433
Time code of first frame                 : 00:00:00:00
Time code source                         : Group of pictures header
Stream size                              : 25.9 MiB (89%)

Audio
ID                                       : 192 (0xC0)
Format                                   : MPEG Audio
Format version                           : Version 1
Format profile                           : Layer 2
Mode                                     : Joint stereo
Duration                                 : 3mn 19s
Bit rate mode                            : Constant
Bit rate                                 : 192 Kbps
Channel(s)                               : 2 channels
Sampling rate                            : 44.1 KHz
Compression mode                         : Lossy
Delay relative to video                  : -80ms
Stream size                              : 2.66 MiB (9%)

